<svg xmlns="http://www.w3.org/2000/svg" width="106" height="32" fill="none"><path fill="#fff" fill-rule="evenodd" d="M0 16C0 7.164 7.164 0 16 0s16 7.164 16 16-7.164 16-16 16S0 24.837 0 16m11.762-3.59a7.4 7.4 0 0 1-1.082.083c-.483 0-.963-.053-1.443-.168-.76-.182-1.448-.515-2.095-.943-.084-.056-.239-.112-.296-.073-.076.05-.118.195-.12.3-.01.608-.005 1.217-.005 1.826v2.247L6.72 20.51c0 .33.114.599.396.774 1.183.738 2.477 1.062 3.87 1.003 1.084-.046 2.132-.287 3.158-.62 1.141-.37 2.273-.77 3.41-1.151.996-.333 2.009-.605 3.058-.705 1.53-.143 2.973.133 4.294.95.306.188.434.112.434-.238v-4.84q-.001-2.03.002-4.06c0-.386-.166-.666-.485-.882-1.729-1.17-3.615-1.316-5.567-.771-1.14.317-2.25.745-3.36 1.157-1.366.508-2.712 1.067-4.168 1.284M42.599 8.323q.015 0 .028-.002l.029-.001.028.001.029.002h.241l-.041.01c3.972.138 7.152 3.442 7.152 7.506 0 4.071-3.19 7.378-7.172 7.507l.061.015h-5.621V8.323H42.6m13 6.31c.078-3.5 2.89-6.313 6.357-6.313s6.28 2.813 6.359 6.313h.007v8.724H65.14v-3.225h-6.367v3.225H55.59v-8.724zm3.174.128v2.142h6.367V14.76h-.002c-.009-1.775-1.43-3.211-3.182-3.211-1.751 0-3.172 1.436-3.182 3.21zM98.485 8.32c-3.467 0-6.28 2.813-6.358 6.313h-.008v8.724h3.183v-3.225h6.366v3.225h3.183v-8.724h-.008c-.077-3.5-2.891-6.313-6.358-6.313m-3.183 6.44v2.143h6.366V14.76h-.001c-.01-1.775-1.43-3.211-3.182-3.211-1.751 0-3.172 1.436-3.182 3.21zm-21.437-.127h.008c.077-3.5 2.89-6.313 6.358-6.313 3.466 0 6.28 2.813 6.358 6.313h.007v8.725h-3.182V14.76c-.011-1.774-1.431-3.21-3.183-3.21s-3.172 1.436-3.183 3.21h-.001v8.598h-3.182zm-33.356-2.482v-.6l2.401.011c2.215.135 3.972 1.996 3.972 4.277 0 2.275-1.747 4.132-3.954 4.276l-2.419.006v-.6l.007.001V12.15z" clip-rule="evenodd"/></svg>